<svg width="18" height="18" viewBox="0 0 18 18" fill="none" xmlns="http://www.w3.org/2000/svg">
<path d="M1.19374 1.15059C0.932817 0.889672 0.932817 0.461494 1.19374 0.200573C1.45466 -0.0603474 1.88284 -0.0603474 2.14376 0.200573L9.49637 7.55319L16.849 0.200573C17.1099 -0.0603474 17.5381 -0.0603474 17.799 0.200573C18.0599 0.461494 18.0599 0.889672 17.799 1.15059L10.4464 8.50321L17.799 15.8558C18.0599 16.1167 18.0599 16.5449 17.799 16.8058C17.5381 17.0668 17.1099 17.0668 16.849 16.8058L9.49637 9.45323L2.14376 16.8058C1.88284 17.0668 1.45466 17.0668 1.19374 16.8058C0.932817 16.5449 0.932817 16.1167 1.19374 15.8558L8.54635 8.50321L1.19374 1.15059Z" fill="#F13946"/>
</svg>
