<?xml version="1.0" encoding="utf-8"?>
<!-- Generator: Adobe Illustrator 16.0.0, SVG Export Plug-In . SVG Version: 6.00 Build 0)  -->
<!DOCTYPE svg PUBLIC "-//W3C//DTD SVG 1.1//EN" "http://www.w3.org/Graphics/SVG/1.1/DTD/svg11.dtd">
<svg version="1.1" id="Layer_1" xmlns="http://www.w3.org/2000/svg" xmlns:xlink="http://www.w3.org/1999/xlink" x="0px" y="0px"
	 width="632.344px" height="589.999px" viewBox="643.827 0.001 632.344 589.999"
	 enable-background="new 643.827 0.001 632.344 589.999" xml:space="preserve">
<g id="Background">
</g>
<g id="Objects">
	<circle fill="#7BA0D6" cx="986.092" cy="290.081" r="290.079"/>
	<g>
		<g>
			<g>
				<path fill="#5F7283" d="M1025.27,375.396h-26.524h-25.307h-26.524c0,0,6.327,111.178-32.606,111.178h59.13h25.307h59.13
					C1018.942,486.573,1025.27,375.396,1025.27,375.396z"/>
				<g>
					<path fill="#32495B" d="M1235.041,90.83H737.143c-7.909,0-14.319,6.412-14.319,14.319v293.378v2.937v22.765
						c0,6.895,5.59,12.484,12.484,12.484h501.57c6.895,0,12.484-5.59,12.484-12.484v-22.765v-2.937V105.149
						C1249.36,97.241,1242.95,90.83,1235.041,90.83z"/>
					<rect x="739.896" y="107.353" fill="#FFFFFF" width="492.391" height="264.371"/>
				</g>
				<rect x="739.713" y="369.52" fill="#5F7283" width="492.758" height="15.422"/>
				<circle fill="#5F7283" cx="986.092" cy="410.186" r="12.944"/>
			</g>
			<rect x="912.827" y="484.347" fill="#32495B" width="146.529" height="4.983"/>
		</g>
		<g>
			<g>
				<g>
					<path fill="#32495B" d="M1044.656,314.408H927.529V197.785c0-8.461,6.86-15.322,15.321-15.322h86.483
						c8.463,0,15.322,6.86,15.322,15.322V314.408L1044.656,314.408z"/>
					<rect x="930.911" y="203.795" fill="#FFFFFF" width="110.363" height="106.756"/>
					<g>
						<path fill="#FFD360" d="M944.072,189.693c1.812,2.377-0.876,5.064-3.253,3.254
							C939.008,190.57,941.696,187.882,944.072,189.693z"/>
						<g>
							<circle fill="#F79020" cx="935.726" cy="191.32" r="2.221"/>
							<path fill="#58C8E0" d="M950.793,189.693c1.811,2.377-0.877,5.064-3.254,3.254
								C945.729,190.57,948.416,187.882,950.793,189.693z"/>
						</g>
					</g>
					<path fill="#415B6D" d="M1034.119,194.42h-73.972c-1.705,0-3.1-1.395-3.1-3.1l0,0c0-1.705,1.395-3.1,3.1-3.1h73.972
						c1.705,0,3.1,1.395,3.1,3.1l0,0C1037.219,193.025,1035.824,194.42,1034.119,194.42z"/>
				</g>
				<g>
					<path fill="#55C606" d="M968.909,237.313l-2.218,1.365c-0.611-0.59-1.297-1.08-2.03-1.466l0.603-2.535
						c0.056-0.233-0.089-0.466-0.32-0.521l-3.468-0.824c-0.233-0.056-0.467,0.089-0.521,0.321l-0.603,2.535
						c-0.829,0.014-1.661,0.144-2.472,0.396l-1.365-2.217c-0.126-0.203-0.392-0.267-0.596-0.142l-3.034,1.87
						c-0.203,0.125-0.268,0.391-0.142,0.596l1.364,2.217c-0.59,0.611-1.08,1.297-1.466,2.03l-2.536-0.603
						c-0.233-0.056-0.467,0.089-0.521,0.32l-0.824,3.468c-0.055,0.233,0.089,0.466,0.32,0.521l2.535,0.603
						c0.014,0.829,0.144,1.661,0.396,2.472l-2.218,1.365c-0.203,0.125-0.267,0.392-0.142,0.596l1.87,3.034
						c0.125,0.203,0.391,0.267,0.596,0.142l2.217-1.365c0.611,0.59,1.297,1.08,2.031,1.466l-0.604,2.536
						c-0.055,0.233,0.089,0.466,0.32,0.521l3.467,0.824c0.233,0.056,0.467-0.089,0.521-0.32l0.603-2.535
						c0.829-0.014,1.661-0.143,2.472-0.396l1.365,2.217c0.126,0.203,0.392,0.267,0.596,0.142l3.034-1.869
						c0.203-0.125,0.268-0.391,0.142-0.596l-1.364-2.217c0.59-0.611,1.08-1.297,1.466-2.03l2.535,0.603
						c0.232,0.056,0.466-0.089,0.521-0.32l0.823-3.466c0.055-0.233-0.088-0.466-0.32-0.521l-2.535-0.603
						c-0.014-0.829-0.143-1.661-0.395-2.472l2.217-1.365c0.203-0.125,0.268-0.393,0.142-0.596l-1.869-3.034
						C969.379,237.252,969.112,237.188,968.909,237.313z M963.348,249.687c-2.542,1.565-5.87,0.774-7.436-1.768
						c-1.565-2.542-0.774-5.87,1.767-7.436c2.542-1.565,5.871-0.774,7.437,1.768S965.89,248.122,963.348,249.687z"/>
					<path fill="#55C606" d="M968.376,219.853l-1.268,0.78c-0.349-0.337-0.741-0.618-1.16-0.837l0.345-1.45
						c0.031-0.133-0.05-0.266-0.184-0.297l-1.981-0.472c-0.134-0.031-0.266,0.051-0.299,0.184l-0.345,1.45
						c-0.474,0.008-0.949,0.082-1.414,0.226l-0.78-1.267c-0.072-0.116-0.224-0.153-0.341-0.081l-1.734,1.068
						c-0.116,0.072-0.153,0.224-0.081,0.341l0.78,1.267c-0.337,0.349-0.618,0.742-0.837,1.16l-1.45-0.345
						c-0.132-0.032-0.266,0.05-0.297,0.184l-0.471,1.981c-0.031,0.132,0.051,0.266,0.183,0.297l1.45,0.345
						c0.008,0.473,0.081,0.949,0.226,1.414l-1.267,0.78c-0.116,0.072-0.152,0.224-0.08,0.341l1.067,1.734
						c0.072,0.116,0.224,0.153,0.341,0.081l1.267-0.78c0.35,0.337,0.742,0.618,1.161,0.837l-0.345,1.45
						c-0.032,0.132,0.05,0.266,0.184,0.297l1.981,0.47c0.132,0.031,0.266-0.05,0.297-0.184l0.346-1.45
						c0.473-0.008,0.948-0.082,1.414-0.226l0.779,1.267c0.072,0.116,0.224,0.153,0.341,0.081l1.735-1.068
						c0.115-0.072,0.152-0.224,0.08-0.341l-0.781-1.267c0.337-0.349,0.618-0.742,0.837-1.161l1.45,0.345
						c0.134,0.031,0.266-0.051,0.297-0.184l0.471-1.981c0.031-0.132-0.051-0.266-0.185-0.297l-1.449-0.345
						c-0.008-0.473-0.082-0.949-0.227-1.413l1.267-0.78c0.116-0.072,0.153-0.224,0.081-0.341l-1.069-1.734
						C968.644,219.818,968.491,219.781,968.376,219.853z M965.196,226.926c-1.452,0.895-3.355,0.443-4.25-1.01
						c-0.895-1.453-0.443-3.356,1.011-4.25c1.453-0.895,3.355-0.442,4.25,1.01S966.649,226.03,965.196,226.926z"/>
					<path fill="#58C8E0" d="M952.388,221.305l-1.75,1.079c-0.483-0.466-1.024-0.854-1.604-1.157l0.477-2.003
						c0.043-0.184-0.069-0.368-0.254-0.412l-2.739-0.651c-0.185-0.043-0.368,0.07-0.412,0.254l-0.476,2.003
						c-0.655,0.011-1.313,0.113-1.953,0.313l-1.079-1.752c-0.1-0.161-0.309-0.211-0.47-0.112l-2.397,1.477
						c-0.161,0.1-0.211,0.31-0.111,0.47l1.078,1.752c-0.467,0.483-0.854,1.024-1.158,1.604l-2.003-0.476
						c-0.184-0.044-0.368,0.069-0.411,0.253l-0.651,2.74c-0.043,0.184,0.07,0.368,0.254,0.412l2.003,0.476
						c0.012,0.654,0.113,1.312,0.313,1.954l-1.752,1.079c-0.161,0.1-0.212,0.31-0.112,0.47l1.478,2.397
						c0.1,0.161,0.309,0.211,0.47,0.112l1.751-1.079c0.483,0.466,1.024,0.854,1.604,1.158l-0.476,2.003
						c-0.044,0.184,0.069,0.368,0.254,0.412l2.739,0.65c0.185,0.043,0.368-0.07,0.412-0.254l0.476-2.003
						c0.654-0.011,1.312-0.113,1.953-0.313l1.078,1.752c0.1,0.161,0.31,0.211,0.471,0.112l2.397-1.477
						c0.161-0.099,0.211-0.309,0.111-0.47l-1.078-1.752c0.466-0.482,0.852-1.024,1.157-1.604l2.003,0.476
						c0.185,0.043,0.369-0.07,0.412-0.254l0.65-2.739c0.044-0.184-0.069-0.368-0.253-0.412l-2.004-0.476
						c-0.011-0.655-0.112-1.312-0.312-1.954l1.75-1.079c0.161-0.1,0.212-0.31,0.112-0.471l-1.477-2.397
						C952.759,221.258,952.549,221.207,952.388,221.305z M947.996,231.082c-2.008,1.237-4.638,0.611-5.875-1.396
						c-1.236-2.007-0.612-4.638,1.396-5.875c2.007-1.237,4.638-0.612,5.875,1.396C950.628,227.214,950.003,229.845,947.996,231.082z
						"/>
				</g>
				<g>
					<g>
						<path fill="#CECECE" d="M997.617,235.857l-9.225-7.821c-0.972,1.098-5.452,6.158-5.783,6.405l-0.244-0.307
							c0.256-0.198,3.641-3.994,5.854-6.5l0.132-0.148l9.228,7.823l5.246-5.819l3.094,2.623l8.257-7.916l10.919,8.011l9.229-10.235
							l0.301,0.255l-9.493,10.529l-10.92-7.546l-8.256,7.451l-3.094-2.622L997.617,235.857z"/>
					</g>
					
						<ellipse transform="matrix(-0.0672 -0.9977 0.9977 -0.0672 814.8188 1230.3223)" fill="#404040" cx="982.528" cy="234.271" rx="0.777" ry="0.8"/>
					
						<ellipse transform="matrix(-0.0672 -0.9977 0.9977 -0.0672 827.3771 1229.2593)" fill="#404040" cx="988.31" cy="227.869" rx="0.777" ry="0.8"/>
					
						<ellipse transform="matrix(-0.0672 -0.9977 0.9977 -0.0672 829.5293 1246.3894)" fill="#404040" cx="997.381" cy="235.437" rx="0.777" ry="0.801"/>
					
						<ellipse transform="matrix(-0.0666 -0.9978 0.9978 -0.0666 840.2645 1245.3092)" fill="#404040" cx="1002.622" cy="229.623" rx="0.777" ry="0.801"/>
					
						<ellipse transform="matrix(-0.0666 -0.9978 0.9978 -0.0666 841.4869 1251.0571)" fill="#404040" cx="1005.922" cy="231.926" rx="0.777" ry="0.801"/>
					
						<ellipse transform="matrix(-0.0666 -0.9978 0.9978 -0.0666 857.6227 1251.3484)" fill="#404040" cx="1014.126" cy="224.524" rx="0.777" ry="0.801"/>
					
						<ellipse transform="matrix(-0.0666 -0.9978 0.9978 -0.0666 881.615 1268.8419)" fill="#404040" cx="1034.305" cy="222.048" rx="0.777" ry="0.801"/>
					
						<ellipse transform="matrix(-0.0666 -0.9978 0.9978 -0.0666 861.5375 1270.3779)" fill="#404040" cx="1024.984" cy="232.207" rx="0.777" ry="0.801"/>
				</g>
				<polygon fill="#F79020" points="982.146,251.717 989.816,249.587 994.389,247.482 1002.151,251.6 1006.571,244.94 
					1013.653,245.69 1018.255,239.431 1025.73,241.111 1035.041,236.421 1035.041,258.541 982.294,258.541 				"/>
				<g>
					<g>
						<path fill="#CECECE" d="M989.913,282.838h-52.678c-0.424,0-0.771-0.348-0.771-0.772l0,0c0-0.424,0.348-0.771,0.771-0.771
							h52.678c0.424,0,0.771,0.348,0.771,0.771l0,0C990.685,282.491,990.337,282.838,989.913,282.838z"/>
						<path fill="#CECECE" d="M989.913,285.927h-52.678c-0.424,0-0.771-0.348-0.771-0.771l0,0c0-0.424,0.348-0.772,0.771-0.772
							h52.678c0.424,0,0.771,0.348,0.771,0.772l0,0C990.685,285.579,990.337,285.927,989.913,285.927z"/>
					</g>
					<g>
						<path fill="#CECECE" d="M989.913,294.042h-52.678c-0.424,0-0.771-0.348-0.771-0.772l0,0c0-0.424,0.348-0.771,0.771-0.771
							h52.678c0.424,0,0.771,0.348,0.771,0.771l0,0C990.685,293.694,990.337,294.042,989.913,294.042z"/>
						<path fill="#CECECE" d="M989.913,297.131h-52.678c-0.424,0-0.771-0.348-0.771-0.771l0,0c0-0.425,0.348-0.772,0.771-0.772
							h52.678c0.424,0,0.771,0.348,0.771,0.772l0,0C990.685,296.783,990.337,297.131,989.913,297.131z"/>
					</g>
				</g>
				<path fill="#CECECE" d="M1027.548,302.979h-17.251c-4.121,0-7.492-3.371-7.492-7.492v-8.417c0-4.121,3.372-7.492,7.492-7.492
					h17.251c4.121,0,7.492,3.371,7.492,7.492v8.417C1035.041,299.607,1031.669,302.979,1027.548,302.979z"/>
			</g>
			<g>
				<g>
					<g>
						<path fill="#32495B" d="M905.708,327.33H760.265V178.809c0-8.461,6.86-15.322,15.322-15.322h114.799
							c8.463,0,15.322,6.859,15.322,15.322V327.33L905.708,327.33z"/>
						<rect x="764.465" y="189.975" fill="#FFFFFF" width="137.044" height="132.563"/>
						<g>
							<path fill="#FFD360" d="M780.81,172.465c2.248,2.952-1.089,6.289-4.041,4.041
								C774.521,173.553,777.857,170.217,780.81,172.465z"/>
							<g>
								<circle fill="#F79020" cx="770.444" cy="174.485" r="2.759"/>
								<path fill="#58C8E0" d="M789.155,172.465c2.248,2.952-1.089,6.289-4.041,4.041
									C782.864,173.553,786.202,170.217,789.155,172.465z"/>
							</g>
						</g>
						<path fill="#415B6D" d="M892.625,178.334h-91.856c-2.116,0-3.848-1.732-3.848-3.848l0,0c0-2.117,1.731-3.849,3.848-3.849
							h91.856c2.116,0,3.849,1.732,3.849,3.849l0,0C896.474,176.603,894.741,178.334,892.625,178.334z"/>
					</g>
					<g>
						<g>
							<g>
								<defs>
									<circle id="SVGID_1_" cx="799.938" cy="228.522" r="25.831"/>
								</defs>
								<clipPath id="SVGID_2_">
									<use xlink:href="#SVGID_1_"  overflow="visible"/>
								</clipPath>
								<circle clip-path="url(#SVGID_2_)" fill="#58C8E0" cx="799.938" cy="228.522" r="25.831"/>
							</g>
							<g>
								<defs>
									<circle id="SVGID_3_" cx="799.938" cy="228.522" r="25.831"/>
								</defs>
								<clipPath id="SVGID_4_">
									<use xlink:href="#SVGID_3_"  overflow="visible"/>
								</clipPath>
								<g clip-path="url(#SVGID_4_)">
									<g>
										<polygon fill="#F76666" points="799.938,228.522 822.845,195.014 778.251,200.813 										"/>
										<polygon fill="#FFFFFF" points="837.353,241.021 799.804,228.156 834.234,212.064 										"/>
									</g>
									<g>
										<polygon fill="#F79020" points="799.938,228.522 822.845,195.014 778.251,200.813 										"/>
										<polygon fill="#55C606" points="837.353,241.021 799.938,228.522 822.845,195.014 										"/>
									</g>
								</g>
							</g>
						</g>
						<g>
							<path fill="#F79020" d="M880.093,254.36h-2.034c-1.125,0-2.045-0.92-2.045-2.045v-23.471c0-1.125,0.92-2.045,2.045-2.045
								h2.034c1.125,0,2.046,0.92,2.046,2.045v23.471C882.139,253.439,881.218,254.36,880.093,254.36z"/>
							<g>
								<path fill="#55C606" d="M870.359,254.36h-2.034c-1.125,0-2.046-0.92-2.046-2.045v-19.096c0-1.125,0.921-2.045,2.046-2.045
									h2.034c1.125,0,2.046,0.92,2.046,2.045v19.096C872.405,253.439,871.484,254.36,870.359,254.36z"/>
								<path fill="#58C8E0" d="M889.828,254.36h-2.034c-1.125,0-2.046-0.92-2.046-2.045V223.63c0-1.125,0.921-2.045,2.046-2.045
									h2.034c1.125,0,2.046,0.92,2.046,2.045v28.684C891.874,253.439,890.953,254.36,889.828,254.36z"/>
							</g>
						</g>
						<path fill="#CECECE" d="M883.738,200.686h-28.792c-1.084,0-1.972,0.888-1.972,1.972v10.559c0,1.084,0.888,1.972,1.972,1.972
							h20.365c1.677,3.316,4.002,7.527,4.002,7.527v-7.527h4.426c1.084,0,1.973-0.888,1.973-1.972v-10.559
							C885.71,201.574,884.823,200.686,883.738,200.686z"/>
						<g>
							<g>
								<path fill="#CECECE" d="M859.204,249.622h-23.648c-0.652,0-1.186-0.533-1.186-1.185l0,0c0-0.652,0.533-1.185,1.186-1.185
									h23.648c0.651,0,1.185,0.533,1.185,1.185l0,0C860.389,249.087,859.855,249.622,859.204,249.622z"/>
								<path fill="#CECECE" d="M859.204,254.36h-23.648c-0.652,0-1.186-0.533-1.186-1.185l0,0c0-0.651,0.533-1.185,1.186-1.185
									h23.648c0.651,0,1.185,0.533,1.185,1.185l0,0C860.389,253.827,859.855,254.36,859.204,254.36z"/>
							</g>
							<g>
								<path fill="#CECECE" d="M859.204,240.816h-23.648c-0.652,0-1.186-0.533-1.186-1.185l0,0c0-0.652,0.533-1.185,1.186-1.185
									h23.648c0.651,0,1.185,0.533,1.185,1.185l0,0C860.389,240.283,859.855,240.816,859.204,240.816z"/>
								<path fill="#CECECE" d="M859.204,245.555h-23.648c-0.652,0-1.186-0.533-1.186-1.185l0,0c0-0.652,0.533-1.185,1.186-1.185
									h23.648c0.651,0,1.185,0.533,1.185,1.185l0,0C860.389,245.022,859.855,245.555,859.204,245.555z"/>
							</g>
						</g>
					</g>
					<g>
						<g>
							<circle fill="#58C8E0" cx="786.354" cy="272.585" r="2.914"/>
							<circle fill="#58C8E0" cx="798.012" cy="272.585" r="2.914"/>
							<circle fill="#58C8E0" cx="809.671" cy="272.585" r="2.914"/>
							<circle fill="#58C8E0" cx="821.328" cy="272.585" r="2.914"/>
							<circle fill="#58C8E0" cx="832.986" cy="272.585" r="2.914"/>
							<circle fill="#58C8E0" cx="844.646" cy="272.585" r="2.914"/>
							<circle fill="#58C8E0" cx="856.304" cy="272.585" r="2.914"/>
							<circle fill="#58C8E0" cx="867.961" cy="272.585" r="2.914"/>
							<circle fill="#CECECE" cx="879.62" cy="272.585" r="2.914"/>
						</g>
						<g>
							<circle fill="#F79020" cx="786.354" cy="284.371" r="2.914"/>
							<circle fill="#F79020" cx="798.012" cy="284.371" r="2.914"/>
							<circle fill="#F79020" cx="809.671" cy="284.371" r="2.914"/>
							<circle fill="#F79020" cx="821.328" cy="284.371" r="2.914"/>
							<circle fill="#F79020" cx="832.986" cy="284.371" r="2.914"/>
							<circle fill="#CECECE" cx="844.646" cy="284.371" r="2.914"/>
							<circle fill="#CECECE" cx="856.304" cy="284.371" r="2.914"/>
							<circle fill="#CECECE" cx="867.961" cy="284.371" r="2.914"/>
							<circle fill="#CECECE" cx="879.62" cy="284.371" r="2.914"/>
						</g>
						<g>
							<circle fill="#55C606" cx="786.354" cy="296.156" r="2.914"/>
							<circle fill="#55C606" cx="798.012" cy="296.156" r="2.914"/>
							<circle fill="#55C606" cx="809.671" cy="296.156" r="2.914"/>
							<circle fill="#55C606" cx="821.328" cy="296.156" r="2.914"/>
							<circle fill="#55C606" cx="832.986" cy="296.156" r="2.914"/>
							<circle fill="#55C606" cx="844.646" cy="296.156" r="2.914"/>
							<circle fill="#CECECE" cx="856.304" cy="296.156" r="2.914"/>
							<circle fill="#CECECE" cx="867.961" cy="296.156" r="2.914"/>
							<circle fill="#CECECE" cx="879.62" cy="296.156" r="2.914"/>
						</g>
						<g>
							<circle fill="#FFD360" cx="786.354" cy="307.94" r="2.914"/>
							<circle fill="#FFD360" cx="798.012" cy="307.94" r="2.914"/>
							<circle fill="#CECECE" cx="809.671" cy="307.94" r="2.914"/>
							<circle fill="#CECECE" cx="821.328" cy="307.94" r="2.914"/>
							<circle fill="#CECECE" cx="832.986" cy="307.94" r="2.914"/>
							<circle fill="#CECECE" cx="844.646" cy="307.94" r="2.914"/>
							<circle fill="#CECECE" cx="856.304" cy="307.94" r="2.914"/>
							<circle fill="#CECECE" cx="867.961" cy="307.94" r="2.914"/>
							<circle fill="#CECECE" cx="879.62" cy="307.94" r="2.914"/>
						</g>
					</g>
				</g>
				<g>
					<g>
						<path fill="#32495B" d="M1211.919,327.33h-145.443V178.809c0-8.461,6.86-15.322,15.322-15.322h114.799
							c8.463,0,15.322,6.859,15.322,15.322V327.33z"/>
						<rect x="1070.675" y="189.975" fill="#FFFFFF" width="137.044" height="132.563"/>
						<g>
							<path fill="#FFD360" d="M1087.021,172.465c2.248,2.952-1.088,6.289-4.041,4.041
								C1080.731,173.553,1084.068,170.217,1087.021,172.465z"/>
							<g>
								<circle fill="#F79020" cx="1076.655" cy="174.485" r="2.759"/>
								<path fill="#58C8E0" d="M1095.364,172.465c2.249,2.952-1.088,6.289-4.04,4.041
									C1089.075,173.553,1092.412,170.217,1095.364,172.465z"/>
							</g>
						</g>
						<path fill="#415B6D" d="M1198.837,178.334h-91.856c-2.116,0-3.849-1.732-3.849-3.848l0,0c0-2.117,1.732-3.849,3.849-3.849
							h91.856c2.116,0,3.848,1.732,3.848,3.849l0,0C1202.685,176.603,1200.953,178.334,1198.837,178.334z"/>
					</g>
					<g>
						<path fill="#F79020" d="M1105.722,286.519v20.833c0,1.776-1.454,3.231-3.232,3.231h-1.741c-1.776,0-3.231-1.454-3.231-3.231
							v-20.833c0-1.777,1.455-3.232,3.231-3.232h1.741C1104.268,283.287,1105.722,284.741,1105.722,286.519z"/>
						<path fill="#55C606" d="M1118.248,270.169v37.183c0,1.776-1.454,3.231-3.231,3.231h-1.742c-1.776,0-3.231-1.454-3.231-3.231
							v-37.183c0-1.777,1.453-3.232,3.231-3.232h1.742C1116.794,266.937,1118.248,268.391,1118.248,270.169z"/>
						<path fill="#F79020" d="M1130.774,280.152v27.2c0,1.776-1.454,3.231-3.232,3.231h-1.741c-1.776,0-3.231-1.454-3.231-3.231
							v-27.2c0-1.777,1.453-3.232,3.231-3.232h1.741C1129.319,276.92,1130.774,278.375,1130.774,280.152z"/>
						<path fill="#55C606" d="M1143.3,265.226v42.126c0,1.776-1.454,3.231-3.232,3.231h-1.741c-1.776,0-3.231-1.454-3.231-3.231
							v-42.126c0-1.777,1.453-3.232,3.231-3.232h1.741C1141.846,261.994,1143.3,263.449,1143.3,265.226z"/>
						<path fill="#F79020" d="M1155.825,269.978v37.372c0,1.777-1.453,3.232-3.231,3.232h-1.741c-1.777,0-3.231-1.454-3.231-3.232
							v-37.372c0-1.777,1.453-3.232,3.231-3.232h1.741C1154.371,266.746,1155.825,268.201,1155.825,269.978z"/>
						<path fill="#55C606" d="M1168.351,255.909v51.44c0,1.777-1.453,3.232-3.231,3.232h-1.741c-1.777,0-3.232-1.454-3.232-3.232
							v-51.44c0-1.777,1.454-3.232,3.232-3.232h1.741C1166.897,252.677,1168.351,254.132,1168.351,255.909z"/>
						<path fill="#F79020" d="M1180.877,250.967v56.384c0,1.776-1.453,3.231-3.231,3.231h-1.741c-1.777,0-3.232-1.454-3.232-3.231
							v-56.384c0-1.777,1.454-3.232,3.232-3.232h1.741C1179.422,247.735,1180.877,249.189,1180.877,250.967z"/>
					</g>
					<g>
						<g>
							<circle fill="#CECECE" cx="1087.813" cy="212.806" r="10.722"/>
							<path fill="#F79020" d="M1087.844,213.765v-14.473c-7.321,0-13.256,5.935-13.256,13.256c0,7.322,5.935,13.256,13.256,13.256
								c6.911,0,12.58-5.29,13.195-12.04H1087.844L1087.844,213.765z"/>
						</g>
						<g>
							<circle fill="#CECECE" cx="1122.903" cy="212.806" r="10.722"/>
							<path fill="#55C606" d="M1122.935,199.291c-7.321,0-13.256,5.935-13.256,13.256s5.935,13.256,13.256,13.256V199.291z"/>
						</g>
						<g>
							<circle fill="#CECECE" cx="1157.994" cy="212.806" r="10.722"/>
							<path fill="#58C8E0" d="M1148.651,221.922l9.374-9.374v-13.256c-7.321,0-13.256,5.935-13.256,13.256
								C1144.768,216.208,1146.253,219.521,1148.651,221.922z"/>
						</g>
						<g>
							<circle fill="#CECECE" cx="1193.085" cy="212.806" r="10.722"/>
							<path fill="#FFD360" d="M1193.116,199.291c-3.66,0-6.976,1.483-9.374,3.882l9.374,9.374V199.291z"/>
						</g>
					</g>
					<g>
						<path fill="#CECECE" d="M1142.222,241.569h-65.414c-0.527,0-0.958-0.431-0.958-0.959l0,0c0-0.528,0.431-0.958,0.958-0.958
							h65.414c0.528,0,0.959,0.431,0.959,0.958l0,0C1143.181,241.138,1142.75,241.569,1142.222,241.569z"/>
						<path fill="#CECECE" d="M1142.222,245.404h-65.414c-0.527,0-0.958-0.431-0.958-0.959l0,0c0-0.527,0.431-0.958,0.958-0.958
							h65.414c0.528,0,0.959,0.431,0.959,0.958l0,0C1143.181,244.973,1142.75,245.404,1142.222,245.404z"/>
					</g>
				</g>
			</g>
		</g>
	</g>
	<g>
		<g>
			<path fill="#32495B" d="M896.551,350.834c0,2.637-0.948,4.714-2.846,6.231c-1.896,1.518-4.538,2.277-7.92,2.277
				c-3.116,0-5.873-0.586-8.27-1.758v-5.753c1.971,0.879,3.639,1.498,5.004,1.857c1.364,0.358,2.614,0.54,3.745,0.54
				c1.358,0,2.4-0.26,3.126-0.779s1.088-1.291,1.088-2.316c0-0.573-0.159-1.081-0.479-1.527s-0.79-0.877-1.409-1.289
				c-0.619-0.411-1.88-1.071-3.785-1.977c-1.785-0.839-3.123-1.645-4.015-2.417c-0.892-0.771-1.605-1.672-2.137-2.697
				c-0.532-1.025-0.799-2.224-0.799-3.596c0-2.584,0.875-4.614,2.626-6.093s4.172-2.217,7.262-2.217c1.518,0,2.966,0.18,4.345,0.539
				c1.378,0.36,2.819,0.866,4.324,1.519l-1.998,4.813c-1.559-0.64-2.846-1.086-3.865-1.338c-1.018-0.252-2.021-0.379-3.006-0.379
				c-1.172,0-2.072,0.272-2.697,0.819c-0.626,0.547-0.938,1.259-0.938,2.137c0,0.546,0.127,1.022,0.379,1.43
				c0.252,0.406,0.656,0.799,1.208,1.177c0.553,0.38,1.861,1.062,3.925,2.048c2.729,1.305,4.601,2.614,5.612,3.926
				S896.551,348.929,896.551,350.834z"/>
			<path fill="#32495B" d="M918.664,358.943h-16.819v-29.204h16.819v5.074h-10.627v6.412h9.888v5.074h-9.888v7.529h10.627V358.943z"
				/>
			<path fill="#32495B" d="M951.263,344.302c0,4.834-1.198,8.55-3.596,11.146s-5.832,3.895-10.308,3.895s-7.91-1.298-10.308-3.895
				s-3.596-6.326-3.596-11.186c0-4.86,1.201-8.572,3.605-11.138c2.404-2.562,5.85-3.844,10.338-3.844
				c4.487,0,7.92,1.291,10.297,3.875C950.072,335.741,951.263,339.454,951.263,344.302z M929.949,344.302
				c0,3.264,0.619,5.719,1.857,7.37s3.09,2.477,5.553,2.477c4.94,0,7.411-3.282,7.411-9.848c0-6.578-2.457-9.867-7.37-9.867
				c-2.464,0-4.321,0.828-5.573,2.485C930.575,338.578,929.949,341.039,929.949,344.302z"/>
		</g>
	</g>
	<path fill="#CECECE" d="M993.561,278.672c-40.208-45.834-109.871-50.317-155.593-10.015
		c-42.998,37.885-49.514,101.859-16.74,147.464L768.8,462.329l14.268,16.264l52.43-46.204
		c40.931,38.421,105.072,40.124,148.059,2.235C1029.28,394.328,1033.758,324.502,993.561,278.672z M971.067,420.385
		c-37.874,33.379-95.582,29.669-128.892-8.298c-33.307-37.969-29.597-95.814,8.28-129.194
		c37.877-33.383,95.584-29.669,128.895,8.302C1012.646,329.171,1008.944,387.008,971.067,420.385z"/>
	<path fill="#F79020" d="M650.87,547.974c-9.201,8.111-9.411,22.952-0.489,33.132l0,0c8.943,10.186,23.651,11.873,32.851,3.765
		l98.718-86.999c9.209-8.112,9.412-22.949,0.482-33.134l0,0c-8.931-10.183-23.64-11.872-32.847-3.764L650.87,547.974z"/>
	<path opacity="0.5" fill="#619FA6" d="M850.454,282.893c-37.876,33.379-41.587,91.225-8.279,129.194l137.173-120.892
		C946.039,253.224,888.331,249.51,850.454,282.893z"/>
	<path opacity="0.5" fill="#73BCC0" d="M979.349,291.195L842.176,412.087c33.31,37.967,91.018,41.677,128.892,8.298
		C1008.944,387.008,1012.646,329.171,979.349,291.195z"/>
	<path fill="#FFFFFF" d="M841.463,346.298c-3.189,0-5.866-2.491-6.062-5.726c-0.068-1.142-1.434-28.176,19.771-46.927
		c29.468-26.063,62.936-17.846,64.348-17.484c3.251,0.836,5.21,4.155,4.377,7.414s-4.142,5.226-7.396,4.387
		c-1.144-0.284-28.775-6.859-53.287,14.819c-16.807,14.863-15.692,36.842-15.68,37.062c0.201,3.358-2.352,6.243-5.702,6.445
		C841.708,346.294,841.585,346.298,841.463,346.298z"/>
</g>
</svg>
